<?xml version="1.0" encoding="utf-8" ?>
<svg xmlns="http://www.w3.org/2000/svg" xmlns:xlink="http://www.w3.org/1999/xlink" width="1088" height="1283">
	<path fill="#D46327" transform="scale(7.25394 7.25394)" d="M0 0L72.5703 0L77.8294 0L150 0L150 70.8642L150 77.4441L150 176.562C149.894 176.629 149.793 176.689 149.68 176.743C149.17 176.986 148.656 176.979 148.102 176.991C132.54 177.326 116.9 177.01 101.33 177.008C97.7052 177.007 79.8218 177.508 77.4902 176.73C76.1777 177.139 74.7956 177.114 73.479 176.741C73.3034 176.807 73.1238 176.868 72.9407 176.91C71.2019 177.304 68.706 177.01 66.8822 177.011L52.8511 177.014C35.8467 177.016 18.7475 177.399 1.75288 176.984C1.06947 176.968 0.590465 176.935 0 176.562L0 0ZM0 0L0 176.562C0.590465 176.935 1.06947 176.968 1.75288 176.984C18.7475 177.399 35.8467 177.016 52.8511 177.014L66.8822 177.011C68.706 177.01 71.2019 177.304 72.9407 176.91C73.1238 176.868 73.3034 176.807 73.479 176.741C72.7238 176.485 71.9502 176.227 71.2465 175.848C64.4666 172.197 64.8736 163.025 64.8541 156.425C64.8428 152.574 64.9122 148.724 64.9401 144.874C64.9536 143.016 65.2359 140.493 64.7119 138.737C64.2806 136.313 64.5927 133.455 64.6091 130.989L64.6549 116.826C60.6462 116.087 56.7095 114.953 52.7869 113.858C52.2693 114.817 51.6924 115.842 50.942 116.637C49.7381 117.914 48.0566 118.831 46.2801 118.88C44.6251 118.925 43.0211 118.195 41.8414 117.056C39.1638 114.472 39.1984 110.757 39.1286 107.314C39.4819 104.749 39.4756 94.929 39.1007 92.5087C39.0273 92.0351 38.8277 91.6336 38.5489 91.2449C38.5294 91.2418 38.5097 91.2398 38.4904 91.2355C37.4998 91.0141 36.2554 90.3648 35.2663 90.0076C29.4641 87.9122 25.4031 85.39 21.8227 80.2312C21.7883 80.1895 21.7529 80.1484 21.721 80.1046C20.4712 78.3861 19.3318 76.0023 19.6561 73.8264C19.9049 72.1575 20.8 71.3654 22.1035 70.4143C23.7021 70.0981 26.143 70.5392 27.508 69.8385C25.3645 68.7565 24.1418 67.0086 23.0047 64.9777C22.9985 64.9639 22.9957 64.948 22.9862 64.9361C22.5188 64.3506 21.205 64.5908 20.4446 64.3926C20.148 64.0213 19.9187 63.8181 20.0392 63.306C20.1985 62.6289 20.7815 61.7999 21.1018 61.1619C22.2212 58.9324 22.5095 57.0477 22.5483 54.6058C23.6981 53.3181 24.776 52.6094 26.346 51.881C25.8364 51.4562 25.3175 51.0077 24.8687 50.5192C23.1861 48.688 22.5697 45.828 22.6809 43.4123C22.8118 40.5693 23.8555 38.1785 25.9537 36.252C25.3916 35.5708 22.9161 35.3939 21.9707 35.2462C20.3593 33.8756 19.798 33.0413 19.2169 30.9894C20.4342 29.4846 21.2048 27.5688 22.2351 25.9231C23.4091 24.3773 24.305 22.6182 25.5112 21.0625C34.0821 10.0088 48.6242 4.21876 62.0011 1.84688C65.5712 1.21386 69.1595 1.04571 72.7482 0.59486L72.5703 0L0 0ZM150 77.4441L149.97 77.5296C149.357 79.3375 149.399 81.4015 149.133 83.2883C148.747 86.0251 148.144 88.7232 147.346 91.3695C142.802 106.446 129.822 121.879 115.688 128.924C115.321 129.107 114.946 129.273 114.564 129.421C114.317 126.004 114.465 122.498 114.466 119.067C114.467 114.285 114.391 109.485 114.529 104.705C114.319 99.8973 114.521 94.9945 114.521 90.1769C105.629 92.2858 96.8186 92.5747 87.7464 92.9685C83.4653 93.1543 79.1444 93.4753 74.861 93.4238C65.8341 93.3152 56.2906 93.0558 47.3213 92.1763C45.8735 92.0344 39.4636 90.8328 38.5489 91.2449C38.8277 91.6336 39.0273 92.0351 39.1007 92.5087C39.4756 94.929 39.4819 104.749 39.1286 107.314C39.1984 110.757 39.1638 114.472 41.8414 117.056C43.0211 118.195 44.6251 118.925 46.2801 118.88C48.0566 118.831 49.7381 117.914 50.942 116.637C51.6924 115.842 52.2693 114.817 52.7869 113.858C56.7095 114.953 60.6462 116.087 64.6549 116.826L64.6091 130.989C64.5927 133.455 64.2806 136.313 64.7119 138.737C65.2359 140.493 64.9536 143.016 64.9401 144.874C64.9122 148.724 64.8428 152.574 64.8541 156.425C64.8736 163.025 64.4666 172.197 71.2465 175.848C71.9502 176.227 72.7238 176.485 73.479 176.741C74.7956 177.114 76.1777 177.139 77.4902 176.73C79.8218 177.508 97.7052 177.007 101.33 177.008C116.9 177.01 132.54 177.326 148.102 176.991C148.656 176.979 149.17 176.986 149.68 176.743C149.793 176.689 149.894 176.629 150 176.562L150 77.4441ZM77.8294 0L77.9823 0.577093C81.2949 1.09063 84.69 1.07399 87.982 1.66319C103.278 4.40066 117.448 11.0577 126.775 23.7979C127.193 24.3685 127.541 24.9346 127.818 25.5866C128.974 27.1725 129.387 29.4191 130.612 30.8417C132.846 32.4808 134.68 34.7515 136.384 36.9138C142.577 44.7712 147.381 54.0091 148.912 63.9846C149.22 65.9852 149.165 69.0569 150 70.8642L150 0L77.8294 0ZM72.5703 0L72.7482 0.59486C74.4909 0.578146 76.2402 0.528642 77.9823 0.577093L77.8294 0L72.5703 0Z"/>
	<path fill="#D46327" fill-opacity="0.086274512" transform="scale(7.25394 7.25394)" d="M72.5703 0L77.8294 0L77.9823 0.577093C76.2402 0.528642 74.4909 0.578146 72.7482 0.59486L72.5703 0Z"/>
	<path fill="#E8A55D" transform="scale(7.25394 7.25394)" d="M61.1064 3.80082C62.1538 3.67518 63.3255 3.50374 64.3333 3.92003C64.8766 4.14444 64.9847 4.30144 65.211 4.81377C65.0811 5.54103 64.6687 5.90328 64.1625 6.3913C63.184 6.48217 62.1117 6.63246 61.164 6.29274C60.499 6.05436 60.3352 5.91161 60.0463 5.30155C60.2846 4.54471 60.5473 4.33675 61.1064 3.80082Z"/>
	<path fill="#E8A55D" transform="scale(7.25394 7.25394)" d="M81.9768 6.51232C82.2287 6.49014 82.4804 6.47571 82.7333 6.47381C83.6415 6.46698 84.8112 6.61402 85.4774 7.30256C85.7523 7.58669 85.7058 7.76098 85.7076 8.12903C85.2878 8.76264 84.8294 8.9908 84.169 9.31481C83.0605 9.28428 81.8779 9.2857 80.911 8.66408C80.4359 8.35859 80.4092 8.27661 80.3039 7.75028C80.6233 7.06497 81.3325 6.82107 81.9768 6.51232Z"/>
	<path fill="#E8A55D" transform="scale(7.25394 7.25394)" d="M99.5408 11.5213C99.7329 11.5061 99.9238 11.4944 100.117 11.4934C101.097 11.4879 102.353 11.7433 103.061 12.487C103.353 12.7944 103.327 12.9045 103.325 13.3187C102.929 13.8788 102.436 14.0117 101.815 14.2168C101.551 14.2507 101.288 14.2781 101.022 14.2947C100.157 14.3487 98.8985 14.3252 98.2294 13.6931C97.9303 13.4106 97.9878 13.2265 97.9881 12.8461C98.3156 12.1583 98.9089 11.8823 99.5408 11.5213Z"/>
	<path fill="#E8A55D" transform="scale(7.25394 7.25394)" d="M87.1508 17.9773C88.0834 18.0037 89.4102 18.0525 90.1786 18.6411C90.5452 18.9219 90.5314 19.0935 90.5984 19.5176C90.3223 20.2853 89.5612 20.6217 88.8984 21.0162C88.824 21.0202 88.7497 21.0246 88.6752 21.0268C87.7631 21.0536 86.423 20.7534 85.7442 20.0812C85.3873 19.7276 85.3942 19.5556 85.3829 19.0847C85.7859 18.3981 86.4446 18.2331 87.1508 17.9773Z"/>
	<path fill="#E8A55D" transform="scale(7.25394 7.25394)" d="M49.0317 10.2618C49.9149 10.2299 50.9832 10.2125 51.7983 10.6076C52.3082 10.8547 52.3788 11.0416 52.5505 11.5479C52.3911 12.3563 51.6435 12.7843 51.0266 13.253C49.9573 13.3018 48.6437 13.1846 47.7652 12.5027C47.3005 12.1419 47.3002 12.034 47.2367 11.4778C47.6297 10.7618 48.3178 10.5568 49.0317 10.2618Z"/>
	<path fill="#E8A55D" transform="scale(7.25394 7.25394)" d="M58.0189 14.5051C58.0509 14.5034 58.0828 14.5012 58.1148 14.5C59.0121 14.4659 60.3956 14.5907 61.0739 15.2476C61.4442 15.6062 61.4249 15.7811 61.4298 16.2632C61.0416 17.0262 60.3366 17.2898 59.6054 17.6463C58.8289 17.7337 57.4937 17.5896 56.8791 17.0929C56.4342 16.7333 56.4305 16.4954 56.3861 15.9624C56.6494 15.208 57.3705 14.8886 58.0189 14.5051Z"/>
	<path fill="#E8A55D" transform="scale(7.25394 7.25394)" d="M73.0843 5.28728C74.134 5.24678 74.9688 5.55034 75.7852 6.18687C76.0832 6.75218 76.1129 6.80749 75.9792 7.43685C75.465 8.13351 74.6044 8.26713 73.8131 8.4911C72.8666 8.56318 71.8478 8.24254 71.1274 7.63127C70.8711 7.04507 70.8537 6.99204 71.0377 6.37392C71.5741 5.71691 72.3093 5.54328 73.0843 5.28728Z"/>
	<path fill="#E8A55D" transform="scale(7.25394 7.25394)" d="M69.622 12.282C70.7632 12.2102 72.0684 12.1428 73.1265 12.6574C73.6533 12.9136 73.734 13.0721 73.9099 13.5998C73.6927 14.3294 73.1019 14.6502 72.5083 15.0571C72.3452 15.107 72.1812 15.1533 72.0146 15.1903C71.1032 15.3929 69.8971 15.213 69.1074 14.675C68.6028 14.3313 68.5456 14.0976 68.4207 13.5343C68.6137 12.8912 69.0928 12.6324 69.622 12.282Z"/>
	<path fill="#E8A55D" transform="scale(7.25394 7.25394)" d="M127.818 25.5866C128.974 27.1725 129.387 29.4191 130.612 30.8417C130.571 32.1943 130.574 33.3352 129.511 34.3366C129.134 34.6921 128.68 34.9916 128.253 35.2846C127.186 35.4768 125.198 35.5629 124.316 36.0935C123.671 35.8362 123.073 35.7905 122.387 35.773C116.135 35.6134 109.848 35.7448 103.592 35.7456L67.8342 35.7553L41.5941 35.7456C36.9611 35.7423 32.2518 35.565 27.6286 35.7818C27.1418 35.8046 26.6861 35.9095 26.2402 36.1062C26.1417 36.1496 26.0476 36.1998 25.9537 36.252C25.3916 35.5708 22.9161 35.3939 21.9707 35.2462C20.3593 33.8756 19.798 33.0413 19.2169 30.9894C20.4342 29.4846 21.2048 27.5688 22.2351 25.9231C25.3323 26.0334 28.5049 26.6952 31.5721 27.1406C36.7865 27.8978 42.003 28.6121 47.2531 29.0771C69.4643 31.0444 91.4228 30.3251 113.531 27.5709C118.201 26.9891 123.254 26.7005 127.818 25.5866Z"/>
	<path fill="#602813" transform="scale(7.25394 7.25394)" d="M25.9537 36.252C26.0476 36.1998 26.1417 36.1496 26.2402 36.1062C26.6861 35.9095 27.1418 35.8046 27.6286 35.7818C32.2518 35.565 36.9611 35.7423 41.5941 35.7456L67.8342 35.7553L103.592 35.7456C109.848 35.7448 116.135 35.6134 122.387 35.773C123.073 35.7905 123.671 35.8362 124.316 36.0935C126.59 38.2673 127.683 40.4414 127.768 43.6261C127.838 46.2191 127.146 48.8966 125.322 50.8156C124.935 51.2225 124.51 51.5972 124.087 51.9651C123.935 52.0328 123.783 52.094 123.625 52.1478C120.083 53.357 105.802 52.7436 101.179 52.7426L69.9765 52.735L44.6438 52.7357C39.6842 52.7445 34.6504 52.9264 29.6982 52.6704C28.4517 52.6059 27.4731 52.4309 26.346 51.881C25.8364 51.4562 25.3175 51.0077 24.8687 50.5192C23.1861 48.688 22.5697 45.828 22.6809 43.4123C22.8118 40.5693 23.8555 38.1785 25.9537 36.252Z"/>
	<path fill="#602813" transform="scale(7.25394 7.25394)" d="M26.346 51.881C27.4731 52.4309 28.4517 52.6059 29.6982 52.6704C34.6504 52.9264 39.6842 52.7445 44.6438 52.7357L69.9765 52.735L101.179 52.7426C105.802 52.7436 120.083 53.357 123.625 52.1478C123.783 52.094 123.935 52.0328 124.087 51.9651C125.426 52.7172 126.539 53.5838 127.5 54.7883C127.589 58.4936 128.7 60.8667 130.339 64.1413C129.467 64.3291 128.222 64.4549 127.474 64.9225C126.367 67.0207 125.027 68.6534 122.992 69.9085C107.28 70.2311 91.5469 70.7511 75.8274 70.8134C69.9967 70.8365 64.1628 70.5786 58.3307 70.5373L39.7266 70.2333C35.668 70.156 31.5508 70.2185 27.508 69.8385C25.3645 68.7565 24.1418 67.0086 23.0047 64.9777C22.9985 64.9639 22.9957 64.948 22.9862 64.9361C22.5188 64.3506 21.205 64.5908 20.4446 64.3926C20.148 64.0213 19.9187 63.8181 20.0392 63.306C20.1985 62.6289 20.7815 61.7999 21.1018 61.1619C22.2212 58.9324 22.5095 57.0477 22.5483 54.6058C23.6981 53.3181 24.776 52.6094 26.346 51.881Z"/>
	<path fill="#E8A55D" transform="scale(7.25394 7.25394)" d="M26.346 51.881C27.4731 52.4309 28.4517 52.6059 29.6982 52.6704C34.6504 52.9264 39.6842 52.7445 44.6438 52.7357L69.9765 52.735L101.179 52.7426C105.802 52.7436 120.083 53.357 123.625 52.1478C123.783 52.094 123.935 52.0328 124.087 51.9651C125.426 52.7172 126.539 53.5838 127.5 54.7883C127.589 58.4936 128.7 60.8667 130.339 64.1413C129.467 64.3291 128.222 64.4549 127.474 64.9225C123.04 63.8613 122.408 59.1922 118.875 57.8121C115.382 56.4472 108.054 58.6353 103.932 58.5427C99.9211 58.4525 96.009 57.0912 91.9699 57.3503C89.7627 57.4919 86.9446 58.0842 85.0478 59.2575C81.6147 61.3811 77.7359 68.9379 74.2554 68.1162C71.1427 67.3812 68.3003 60.7459 63.8742 58.6865C62.0567 57.8409 59.8043 57.4544 57.8143 57.3703C53.4283 57.1849 49.1229 58.5508 44.7075 58.5374C41.2979 58.5271 34.138 56.3579 31.3154 57.7675C31.2182 57.816 31.1565 57.8524 31.0627 57.9084C28.8049 59.2576 27.2619 61.7556 25.3186 63.501C24.6198 64.1286 23.6576 64.3948 23.0047 64.9777C22.9985 64.9639 22.9957 64.948 22.9862 64.9361C22.5188 64.3506 21.205 64.5908 20.4446 64.3926C20.148 64.0213 19.9187 63.8181 20.0392 63.306C20.1985 62.6289 20.7815 61.7999 21.1018 61.1619C22.2212 58.9324 22.5095 57.0477 22.5483 54.6058C23.6981 53.3181 24.776 52.6094 26.346 51.881Z"/>
	<path fill="#1C3A69" transform="scale(7.25394 7.25394)" d="M130.612 30.8417C132.846 32.4808 134.68 34.7515 136.384 36.9138C142.577 44.7712 147.381 54.0091 148.912 63.9846C149.22 65.9852 149.165 69.0569 150 70.8642L150 77.4441L149.97 77.5296C149.357 79.3375 149.399 81.4015 149.133 83.2883C148.747 86.0251 148.144 88.7232 147.346 91.3695C142.802 106.446 129.822 121.879 115.688 128.924C115.321 129.107 114.946 129.273 114.564 129.421C114.317 126.004 114.465 122.498 114.466 119.067C114.467 114.285 114.391 109.485 114.529 104.705C114.319 99.8973 114.521 94.9945 114.521 90.1769C115.47 89.6588 116.646 89.4363 117.657 89.005C122.308 87.0216 125.731 84.626 128.458 80.2533C128.709 79.8823 128.945 79.4948 129.141 79.0916C129.936 77.4575 131.277 74.596 130.603 72.8083C129.285 69.3162 125.08 70.8964 123.102 69.9634C123.065 69.9459 123.028 69.9268 122.992 69.9085C125.027 68.6534 126.367 67.0207 127.474 64.9225C128.222 64.4549 129.467 64.3291 130.339 64.1413C128.7 60.8667 127.589 58.4936 127.5 54.7883C126.539 53.5838 125.426 52.7172 124.087 51.9651C124.51 51.5972 124.935 51.2225 125.322 50.8156C127.146 48.8966 127.838 46.2191 127.768 43.6261C127.683 40.4414 126.59 38.2673 124.316 36.0935C125.198 35.5629 127.186 35.4768 128.253 35.2846C128.68 34.9916 129.134 34.6921 129.511 34.3366C130.574 33.3352 130.571 32.1943 130.612 30.8417Z"/>
	<path fill="#FEFEFE" transform="scale(7.25394 7.25394)" d="M124.316 36.0935C125.198 35.5629 127.186 35.4768 128.253 35.2846C135.539 47.276 138.296 60.7121 134.926 74.488C132.215 85.5744 124.005 98.2261 114.529 104.705C114.319 99.8973 114.521 94.9945 114.521 90.1769C115.47 89.6588 116.646 89.4363 117.657 89.005C122.308 87.0216 125.731 84.626 128.458 80.2533C128.709 79.8823 128.945 79.4948 129.141 79.0916C129.936 77.4575 131.277 74.596 130.603 72.8083C129.285 69.3162 125.08 70.8964 123.102 69.9634C123.065 69.9459 123.028 69.9268 122.992 69.9085C125.027 68.6534 126.367 67.0207 127.474 64.9225C128.222 64.4549 129.467 64.3291 130.339 64.1413C128.7 60.8667 127.589 58.4936 127.5 54.7883C126.539 53.5838 125.426 52.7172 124.087 51.9651C124.51 51.5972 124.935 51.2225 125.322 50.8156C127.146 48.8966 127.838 46.2191 127.768 43.6261C127.683 40.4414 126.59 38.2673 124.316 36.0935Z"/>
	<path fill="#D46327" transform="scale(7.25394 7.25394)" d="M27.508 69.8385C31.5508 70.2185 35.668 70.156 39.7266 70.2333L58.3307 70.5373C64.1628 70.5786 69.9967 70.8365 75.8274 70.8134C91.5469 70.7511 107.28 70.2311 122.992 69.9085C123.028 69.9268 123.065 69.9459 123.102 69.9634C125.08 70.8964 129.285 69.3162 130.603 72.8083C131.277 74.596 129.936 77.4575 129.141 79.0916C128.945 79.4948 128.709 79.8823 128.458 80.2533C125.731 84.626 122.308 87.0216 117.657 89.005C116.646 89.4363 115.47 89.6588 114.521 90.1769C105.629 92.2858 96.8186 92.5747 87.7464 92.9685C83.4653 93.1543 79.1444 93.4753 74.861 93.4238C65.8341 93.3152 56.2906 93.0558 47.3213 92.1763C45.8735 92.0344 39.4636 90.8328 38.5489 91.2449C38.5294 91.2418 38.5097 91.2398 38.4904 91.2355C37.4998 91.0141 36.2554 90.3648 35.2663 90.0076C29.4641 87.9122 25.4031 85.39 21.8227 80.2312C21.7883 80.1895 21.7529 80.1484 21.721 80.1046C20.4712 78.3861 19.3318 76.0023 19.6561 73.8264C19.9049 72.1575 20.8 71.3654 22.1035 70.4143C23.7021 70.0981 26.143 70.5392 27.508 69.8385Z"/>
	<path fill="#E8A55D" transform="scale(7.25394 7.25394)" d="M27.508 69.8385C31.5508 70.2185 35.668 70.156 39.7266 70.2333L58.3307 70.5373C64.1628 70.5786 69.9967 70.8365 75.8274 70.8134C91.5469 70.7511 107.28 70.2311 122.992 69.9085C123.028 69.9268 123.065 69.9459 123.102 69.9634C125.08 70.8964 129.285 69.3162 130.603 72.8083C131.277 74.596 129.936 77.4575 129.141 79.0916C128.945 79.4948 128.709 79.8823 128.458 80.2533C128.434 80.2379 128.411 80.2215 128.386 80.2071C127.097 79.45 121.286 79.2758 119.593 79.1196C104.309 77.7097 88.9846 77.3716 73.6448 77.4249C62.9104 77.4622 52.2423 77.5971 41.5274 78.2859C35.1197 78.6978 28.0967 78.8432 21.8227 80.2312C21.7883 80.1895 21.7529 80.1484 21.721 80.1046C20.4712 78.3861 19.3318 76.0023 19.6561 73.8264C19.9049 72.1575 20.8 71.3654 22.1035 70.4143C23.7021 70.0981 26.143 70.5392 27.508 69.8385Z"/>
	<path fill="#BE2024" transform="scale(7.25394 7.25394)" d="M150 77.4441L150 176.562C149.894 176.629 149.793 176.689 149.68 176.743C149.17 176.986 148.656 176.979 148.102 176.991C132.54 177.326 116.9 177.01 101.33 177.008C97.7052 177.007 79.8218 177.508 77.4902 176.73C76.1777 177.139 74.7956 177.114 73.479 176.741C72.7238 176.485 71.9502 176.227 71.2465 175.848C64.4666 172.197 64.8736 163.025 64.8541 156.425C64.8428 152.574 64.9122 148.724 64.9401 144.874C64.9536 143.016 65.2359 140.493 64.7119 138.737C64.2806 136.313 64.5927 133.455 64.6091 130.989L64.6549 116.826C60.6462 116.087 56.7095 114.953 52.7869 113.858C52.2693 114.817 51.6924 115.842 50.942 116.637C49.7381 117.914 48.0566 118.831 46.2801 118.88C44.6251 118.925 43.0211 118.195 41.8414 117.056C39.1638 114.472 39.1984 110.757 39.1286 107.314C39.4819 104.749 39.4756 94.929 39.1007 92.5087C39.0273 92.0351 38.8277 91.6336 38.5489 91.2449C39.4636 90.8328 45.8735 92.0344 47.3213 92.1763C56.2906 93.0558 65.8341 93.3152 74.861 93.4238C79.1444 93.4753 83.4653 93.1543 87.7464 92.9685C96.8186 92.5747 105.629 92.2858 114.521 90.1769C114.521 94.9945 114.319 99.8973 114.529 104.705C114.391 109.485 114.467 114.285 114.466 119.067C114.465 122.498 114.317 126.004 114.564 129.421C114.946 129.273 115.321 129.107 115.688 128.924C129.822 121.879 142.802 106.446 147.346 91.3695C148.144 88.7232 148.747 86.0251 149.133 83.2883C149.399 81.4015 149.357 79.3375 149.97 77.5296L150 77.4441ZM150 77.4441L149.97 77.5296C149.357 79.3375 149.399 81.4015 149.133 83.2883C148.747 86.0251 148.144 88.7232 147.346 91.3695C142.802 106.446 129.822 121.879 115.688 128.924C115.321 129.107 114.946 129.273 114.564 129.421L114.551 129.485C113.699 133.851 115.479 139.844 110.909 142.948C109.184 144.119 106.756 144.174 104.779 143.77C102.718 143.348 101.162 142.266 100.019 140.505C99.1173 139.117 98.6099 137.735 98.1817 136.151C94.4647 137.851 89.3258 138.202 85.2929 138.873C84.8377 140.642 85.0532 142.932 85.0576 144.758L85.1525 156.11C85.2103 162.428 86.1313 172.073 79.7481 175.824C79.0691 176.223 78.2533 176.536 77.4902 176.73C79.8218 177.508 97.7052 177.007 101.33 177.008C116.9 177.01 132.54 177.326 148.102 176.991C148.656 176.979 149.17 176.986 149.68 176.743C149.793 176.689 149.894 176.629 150 176.562L150 77.4441Z"/>
	<path fill="#FEFEFE" transform="scale(7.25394 7.25394)" d="M53.5389 99.8862C56.8581 101.245 61.1471 102.366 64.7317 102.587C64.7277 107.221 65.1264 112.238 64.6549 116.826C60.6462 116.087 56.7095 114.953 52.7869 113.858C54.0087 109.382 53.554 104.5 53.5389 99.8862Z"/>
	<path fill="#FEFEFE" transform="scale(7.25394 7.25394)" d="M85.2691 102.599C89.6059 102.274 94.2467 100.852 98.2966 99.3241C98.3127 104.029 98.5061 108.825 98.2157 113.519C93.9544 114.894 89.7011 115.951 85.3249 116.869C85.0432 112.167 85.2778 107.317 85.2691 102.599Z"/>
	<path fill="#1C3A69" transform="scale(7.25394 7.25394)" d="M85.3249 116.869C89.7011 115.951 93.9544 114.894 98.2157 113.519L98.1838 129.001C98.1714 131.292 97.9083 133.89 98.1817 136.151C94.4647 137.851 89.3258 138.202 85.2929 138.873C85.5224 136.579 85.3186 134.064 85.3177 131.752L85.3249 116.869Z"/>
	<path fill="#1C3A69" transform="scale(7.25394 7.25394)" d="M64.7119 138.737C47.8957 137.642 28.152 127.594 16.8473 115.212C5.2811 102.543 -0.3333 87.5747 0.46597 70.439C1.14696 55.8393 8.43464 40.8199 19.2169 30.9894C19.798 33.0413 20.3593 33.8756 21.9707 35.2462C22.9161 35.3939 25.3916 35.5708 25.9537 36.252C23.8555 38.1785 22.8118 40.5693 22.6809 43.4123C22.5697 45.828 23.1861 48.688 24.8687 50.5192C25.3175 51.0077 25.8364 51.4562 26.346 51.881C24.776 52.6094 23.6981 53.3181 22.5483 54.6058C22.5095 57.0477 22.2212 58.9324 21.1018 61.1619C20.7815 61.7999 20.1985 62.6289 20.0392 63.306C19.9187 63.8181 20.148 64.0213 20.4446 64.3926C21.205 64.5908 22.5188 64.3506 22.9862 64.9361C22.9957 64.948 22.9985 64.9639 23.0047 64.9777C24.1418 67.0086 25.3645 68.7565 27.508 69.8385C26.143 70.5392 23.7021 70.0981 22.1035 70.4143C20.8 71.3654 19.9049 72.1575 19.6561 73.8264C19.3318 76.0023 20.4712 78.3861 21.721 80.1046C21.7529 80.1484 21.7883 80.1895 21.8227 80.2312C25.4031 85.39 29.4641 87.9122 35.2663 90.0076C36.2554 90.3648 37.4998 91.0141 38.4904 91.2355C38.5097 91.2398 38.5294 91.2418 38.5489 91.2449C38.8277 91.6336 39.0273 92.0351 39.1007 92.5087C39.4756 94.929 39.4819 104.749 39.1286 107.314C39.1984 110.757 39.1638 114.472 41.8414 117.056C43.0211 118.195 44.6251 118.925 46.2801 118.88C48.0566 118.831 49.7381 117.914 50.942 116.637C51.6924 115.842 52.2693 114.817 52.7869 113.858C56.7095 114.953 60.6462 116.087 64.6549 116.826L64.6091 130.989C64.5927 133.455 64.2806 136.313 64.7119 138.737Z"/>
	<path fill="#FEFEFE" transform="scale(7.25394 7.25394)" d="M21.9707 35.2462C22.9161 35.3939 25.3916 35.5708 25.9537 36.252C23.8555 38.1785 22.8118 40.5693 22.6809 43.4123C22.5697 45.828 23.1861 48.688 24.8687 50.5192C25.3175 51.0077 25.8364 51.4562 26.346 51.881C24.776 52.6094 23.6981 53.3181 22.5483 54.6058C22.5095 57.0477 22.2212 58.9324 21.1018 61.1619C20.7815 61.7999 20.1985 62.6289 20.0392 63.306C19.9187 63.8181 20.148 64.0213 20.4446 64.3926C21.205 64.5908 22.5188 64.3506 22.9862 64.9361C22.9957 64.948 22.9985 64.9639 23.0047 64.9777C24.1418 67.0086 25.3645 68.7565 27.508 69.8385C26.143 70.5392 23.7021 70.0981 22.1035 70.4143C20.8 71.3654 19.9049 72.1575 19.6561 73.8264C19.3318 76.0023 20.4712 78.3861 21.721 80.1046C21.7529 80.1484 21.7883 80.1895 21.8227 80.2312C25.4031 85.39 29.4641 87.9122 35.2663 90.0076C36.2554 90.3648 37.4998 91.0141 38.4904 91.2355C38.5097 91.2398 38.5294 91.2418 38.5489 91.2449C38.8277 91.6336 39.0273 92.0351 39.1007 92.5087C39.4756 94.929 39.4819 104.749 39.1286 107.314C27.1423 98.147 18.4244 88.8356 15.0111 73.6194C12.0158 60.266 14.6768 46.7409 21.9707 35.2462Z"/>
</svg>
